<?xml version="1.0" encoding="iso-8859-1"?>
<!-- Generator: Adobe Illustrator 21.0.0, SVG Export Plug-In . SVG Version: 6.00 Build 0)  -->
<svg version="1.1" id="Capa_1" xmlns="http://www.w3.org/2000/svg" xmlns:xlink="http://www.w3.org/1999/xlink" x="0px" y="0px"
	 viewBox="0 0 512 512" style="enable-background:new 0 0 512 512;" xml:space="preserve">
<linearGradient id="SVGID_1_" gradientUnits="userSpaceOnUse" x1="0" y1="258" x2="512" y2="258" gradientTransform="matrix(1 0 0 -1 0 514)">
	<stop  offset="0" style="stop-color:#00F2FE"/>
	<stop  offset="0.021" style="stop-color:#03EFFE"/>
	<stop  offset="0.293" style="stop-color:#24D2FE"/>
	<stop  offset="0.554" style="stop-color:#3CBDFE"/>
	<stop  offset="0.796" style="stop-color:#4AB0FE"/>
	<stop  offset="1" style="stop-color:#4FACFE"/>
</linearGradient>
<path style="fill:url(#SVGID_1_);" d="M492,196c-11.046,0-20,8.954-20,20v70H236c0-44.112-35.888-80-80-80H80
	c-14.566,0-28.223,3.932-40,10.763V103c0-11.046-8.954-20-20-20S0,91.954,0,103l0,0v389l0,0c0,11.046,8.954,20,20,20s20-8.954,20-20
	v-66h312c11.046,0,20-8.954,20-20s-8.954-20-20-20H40v-60h432v58h-20c-11.046,0-20,8.954-20,20s8.954,20,20,20h20v68
	c0,11.046,8.954,20,20,20s20-8.954,20-20l0,0V216l0,0C512,204.954,503.046,196,492,196z M80,246h76c22.056,0,40,17.944,40,40H40
	C40,263.944,57.944,246,80,246z M332,90c0-11.046,8.954-20,20-20h50V20c0-11.046,8.954-20,20-20s20,8.954,20,20v50h50
	c11.046,0,20,8.954,20,20s-8.954,20-20,20h-50v50c0,11.046-8.954,20-20,20s-20-8.954-20-20v-50h-50C340.954,110,332,101.046,332,90z
	"/>
<g>
</g>
<g>
</g>
<g>
</g>
<g>
</g>
<g>
</g>
<g>
</g>
<g>
</g>
<g>
</g>
<g>
</g>
<g>
</g>
<g>
</g>
<g>
</g>
<g>
</g>
<g>
</g>
<g>
</g>
</svg>
