<svg id="Capa_1" enable-background="new 0 0 511.95 511.95" height="512" viewBox="0 0 511.95 511.95" width="512" xmlns="http://www.w3.org/2000/svg"><g><path d="m368.865 301.39-158.4 158.63-94.89-53.87-53.6-94.62 158.39-158.63 96.85 51.61z" fill="#edf5ff"/><path d="m368.865 301.39-158.4 158.63-94.89-53.87 201.64-201.64z" fill="#d5e8fe"/><g><path d="m368.845 407.444c-5.858-5.858-5.858-15.355 0-21.213l63.64-63.64c52.636-52.637 52.636-138.283 0-190.919-5.858-5.858-5.858-15.355 0-21.213s15.356-5.858 21.213 0c64.333 64.333 64.333 169.012 0 233.345l-63.64 63.64c-5.856 5.858-15.355 5.859-21.213 0z" fill="#29376d"/></g><g><path d="m390.058 89.246-42.427-42.426c-5.858-5.857-5.858-15.355 0-21.213 5.857-5.858 15.355-5.858 21.213 0l42.427 42.426c5.858 5.857 5.858 15.355 0 21.213-5.857 5.858-15.355 5.859-21.213 0z" fill="#47568c"/></g><path d="m453.695 131.67-46.05 46.05c-5.85 5.86-15.35 5.86-21.21 0l-21.21-21.22-21.21-21.21c-5.86-5.85-5.86-15.35 0-21.21l46.04-46.05c17.55-17.54 46.1-17.54 63.64 0 17.55 17.55 17.55 46.1 0 63.64z" fill="#61729b"/><path d="m453.695 131.67-46.05 46.05c-5.85 5.86-15.35 5.86-21.21 0l-21.21-21.22 88.47-88.47c17.55 17.55 17.55 46.1 0 63.64z" fill="#47568c"/><g><path d="m326.418 68.033c-5.858-5.858-5.858-15.355 0-21.213l42.427-42.426c5.858-5.858 15.356-5.857 21.213 0 5.858 5.858 5.858 15.355 0 21.213l-42.427 42.426c-5.857 5.857-15.355 5.858-21.213 0z" fill="#61729b"/></g><g><path d="m326.418 449.87c-17.587-17.586-17.589-46.05 0-63.64 17.547-17.546 46.097-17.544 63.64 0 17.586 17.586 17.59 46.051 0 63.639-17.544 17.546-46.094 17.548-63.64.001z" fill="#47568c"/></g><path d="m210.465 460.02-21.19 21.22c-40.94 40.94-107.55 40.95-148.5.01-.05-.05-.1-.1-.15-.15-40.88-41.05-40.83-107.36.15-148.35l21.2-21.22 74.11 74.11z" fill="#80d4ff"/><path d="m210.465 460.02-21.19 21.22c-40.94 40.94-107.55 40.95-148.5.01-.05-.05-.1-.1-.15-.15l95.46-95.46z" fill="#6aa9ff"/><path d="m390.055 280.17-21.19 21.22-74.27-74.26-74.23-74.23 21.19-21.22c41.03-41.03 107.45-41.06 148.5-.01 40.94 40.94 40.94 107.56 0 148.5z" fill="#80d4ff"/><path d="m390.055 280.17-21.19 21.22-74.27-74.26 95.46-95.46c40.94 40.94 40.94 107.56 0 148.5z" fill="#6aa9ff"/></g></svg>